<svg width="845" height="256" viewBox="0 0 845 256" fill="none" xmlns="http://www.w3.org/2000/svg">
<path d="M331.021 162.215H356.997C357.167 168.155 359.374 172.822 363.618 176.217C367.863 179.611 373.72 181.308 381.19 181.308C389 181.308 395.027 179.781 399.272 176.726C403.516 173.671 405.639 169.683 405.639 164.761C405.639 161.027 404.535 157.972 402.328 155.596C400.121 153.05 395.961 151.014 389.849 149.486L367.438 144.395C356.403 141.68 348.083 137.522 342.481 131.921C337.048 126.32 334.331 118.683 334.331 109.01C334.331 101.033 336.369 94.2443 340.443 88.6437C344.688 82.8734 350.46 78.4609 357.761 75.406C365.061 72.1814 373.38 70.5691 382.718 70.5691C392.056 70.5691 400.206 72.2663 407.167 75.6606C414.128 78.8852 419.56 83.4674 423.465 89.4075C427.37 95.3475 429.323 102.391 429.323 110.537H403.347C403.177 104.597 401.224 99.9298 397.489 96.5355C393.754 93.1412 388.491 91.444 381.7 91.444C375.078 91.444 369.9 92.9715 366.165 96.0263C362.43 98.9115 360.562 102.9 360.562 107.991C360.562 115.628 366.25 120.89 377.625 123.775L400.036 128.866C410.562 131.242 418.457 135.146 423.72 140.576C428.983 145.838 431.615 153.22 431.615 162.724C431.615 170.701 429.408 177.744 424.993 183.854C420.749 189.963 414.807 194.631 407.167 197.855C399.526 201.08 390.613 202.692 380.426 202.692C365.316 202.692 353.262 198.958 344.263 191.491C335.435 184.023 331.021 174.265 331.021 162.215Z" fill="white"/>
<path d="M442.412 136.758C442.412 123.69 445.213 112.234 450.816 102.391C456.589 92.5472 464.483 84.8252 474.5 79.2246C484.517 73.624 495.892 70.8237 508.626 70.8237C521.359 70.8237 532.65 73.624 542.497 79.2246C552.344 84.8252 560.154 92.5472 565.927 102.391C571.699 112.234 574.585 123.69 574.585 136.758C574.585 149.656 571.699 161.027 565.927 170.871C560.154 180.714 552.344 188.436 542.497 194.037C532.65 199.637 521.359 202.437 508.626 202.437C495.892 202.437 484.517 199.637 474.5 194.037C464.483 188.436 456.589 180.714 450.816 170.871C445.213 161.027 442.412 149.656 442.412 136.758ZM469.916 136.503C469.916 144.65 471.529 151.862 474.755 158.142C478.151 164.252 482.735 169.089 488.507 172.653C494.28 176.047 500.986 177.744 508.626 177.744C516.096 177.744 522.718 176.047 528.49 172.653C534.263 169.089 538.762 164.252 541.988 158.142C545.213 151.862 546.826 144.65 546.826 136.503C546.826 128.357 545.213 121.229 541.988 115.119C538.762 109.01 534.263 104.258 528.49 100.863C522.718 97.2992 516.096 95.5172 508.626 95.5172C500.986 95.5172 494.28 97.2992 488.507 100.863C482.735 104.258 478.151 109.01 474.755 115.119C471.529 121.229 469.916 128.357 469.916 136.503Z" fill="white"/>
<path d="M585.487 74.3877H660.869V97.2992H585.487V74.3877ZM661.378 12.0175V35.6927C659.85 35.6927 658.152 35.6927 656.285 35.6927C654.417 35.6927 652.549 35.6927 650.682 35.6927C642.872 35.6927 637.609 37.5596 634.892 41.2933C632.346 45.027 631.072 50.1185 631.072 56.5676V199.383H603.568V56.5676C603.568 45.8756 605.351 37.2201 608.916 30.6013C612.651 23.8127 617.66 18.891 623.942 15.8361C630.393 12.6115 637.779 10.9992 646.098 10.9992C648.475 10.9992 651.021 11.0841 653.738 11.2538C656.454 11.4235 659.001 11.6781 661.378 12.0175Z" fill="white"/>
<path d="M676.246 74.3877H752.392V97.2992H676.246V74.3877ZM727.944 199.383H700.695V35.1836H727.944V199.383Z" fill="white"/>
<path d="M842.626 73.624V98.8266H831.675C820.299 98.8266 811.301 101.966 804.68 108.246C798.228 114.525 795.002 123.775 795.002 135.994V199.383H767.753V74.3877H793.474L795.766 100.099H793.22C794.917 91.7834 798.907 84.9948 805.189 79.7337C811.471 74.4725 819.62 71.8419 829.637 71.8419C831.675 71.8419 833.712 72.0117 835.749 72.3511C837.957 72.5208 840.249 72.9451 842.626 73.624Z" fill="white"/>
<path d="M141.507 183.837C141.507 168.951 141.507 161.507 144.405 155.821C146.954 150.82 151.022 146.753 156.026 144.205C161.714 141.308 169.16 141.308 184.052 141.308H211.644C226.536 141.308 233.982 141.308 239.671 144.205C244.674 146.753 248.742 150.82 251.291 155.821C254.19 161.507 254.19 168.951 254.19 183.837V211.418C254.19 226.305 254.19 233.748 251.291 239.434C248.742 244.436 244.674 248.502 239.671 251.051C233.982 253.948 226.536 253.948 211.644 253.948H184.052C169.16 253.948 161.714 253.948 156.026 251.051C151.022 248.502 146.954 244.436 144.405 239.434C141.507 233.748 141.507 226.305 141.507 211.418V183.837Z" fill="white"/>
<path d="M2.1748 197.628C2.1748 166.523 27.3997 141.308 58.5163 141.308C89.6328 141.308 114.858 166.523 114.858 197.628C114.858 228.733 89.6328 253.948 58.5163 253.948C27.3997 253.948 2.1748 228.733 2.1748 197.628Z" fill="white"/>
<path d="M2.1748 44.5816C2.1748 29.6948 2.1748 22.2515 5.07306 16.5655C7.62244 11.564 11.6904 7.49759 16.6938 4.94918C22.3819 2.05203 29.8282 2.05203 44.7206 2.05203H211.644C226.536 2.05203 233.982 2.05203 239.671 4.94918C244.674 7.49759 248.742 11.564 251.291 16.5655C254.19 22.2515 254.19 29.6948 254.19 44.5816V72.1625C254.19 87.0492 254.19 94.4926 251.291 100.179C248.742 105.18 244.674 109.246 239.671 111.795C233.982 114.692 226.536 114.692 211.644 114.692H44.7206C29.8282 114.692 22.3819 114.692 16.6938 111.795C11.6904 109.246 7.62244 105.18 5.07306 100.179C2.1748 94.4926 2.1748 87.0492 2.1748 72.1625V44.5816Z" fill="white"/>
</svg>
